<?xml version="1.0" encoding="UTF-8" standalone="no"?>
<!-- Created with Inkscape (http://www.inkscape.org/) -->

<svg
   xmlns:dc="http://purl.org/dc/elements/1.1/"
   xmlns:cc="http://creativecommons.org/ns#"
   xmlns:rdf="http://www.w3.org/1999/02/22-rdf-syntax-ns#"
   xmlns:svg="http://www.w3.org/2000/svg"
   xmlns="http://www.w3.org/2000/svg"
   xmlns:sodipodi="http://sodipodi.sourceforge.net/DTD/sodipodi-0.dtd"
   xmlns:inkscape="http://www.inkscape.org/namespaces/inkscape"
   width="1024"
   height="576"
   id="svg2"
   version="1.1"
   inkscape:version="0.48.1 r9760"
   sodipodi:docname="Slide.svg">
  <defs
     id="defs4">
    <inkscape:perspective
       sodipodi:type="inkscape:persp3d"
       inkscape:vp_x="0 : 526.18109 : 1"
       inkscape:vp_y="0 : 1000 : 0"
       inkscape:vp_z="744.09448 : 526.18109 : 1"
       inkscape:persp3d-origin="372.04724 : 350.78739 : 1"
       id="perspective10" />
    <inkscape:perspective
       sodipodi:type="inkscape:persp3d"
       inkscape:vp_x="0 : 0.5 : 1"
       inkscape:vp_y="0 : 1000 : 0"
       inkscape:vp_z="1 : 0.5 : 1"
       inkscape:persp3d-origin="0.5 : 0.33333333 : 1"
       id="perspective3258" />
    <inkscape:perspective
       id="perspective10-0"
       inkscape:persp3d-origin="372.04724 : 350.78739 : 1"
       inkscape:vp_z="744.09448 : 526.18109 : 1"
       inkscape:vp_y="0 : 1000 : 0"
       inkscape:vp_x="0 : 526.18109 : 1"
       sodipodi:type="inkscape:persp3d" />
    <inkscape:perspective
       id="perspective3063"
       inkscape:persp3d-origin="0.5 : 0.33333333 : 1"
       inkscape:vp_z="1 : 0.5 : 1"
       inkscape:vp_y="0 : 1000 : 0"
       inkscape:vp_x="0 : 0.5 : 1"
       sodipodi:type="inkscape:persp3d" />
    <inkscape:perspective
       id="perspective3905"
       inkscape:persp3d-origin="0.5 : 0.33333333 : 1"
       inkscape:vp_z="1 : 0.5 : 1"
       inkscape:vp_y="0 : 1000 : 0"
       inkscape:vp_x="0 : 0.5 : 1"
       sodipodi:type="inkscape:persp3d" />
    <inkscape:perspective
       id="perspective3939"
       inkscape:persp3d-origin="0.5 : 0.33333333 : 1"
       inkscape:vp_z="1 : 0.5 : 1"
       inkscape:vp_y="0 : 1000 : 0"
       inkscape:vp_x="0 : 0.5 : 1"
       sodipodi:type="inkscape:persp3d" />
  </defs>
  <sodipodi:namedview
     id="base"
     pagecolor="#ffffff"
     bordercolor="#666666"
     borderopacity="1.0"
     inkscape:pageopacity="0.0"
     inkscape:pageshadow="2"
     inkscape:zoom="0.5843927"
     inkscape:cx="369.95219"
     inkscape:cy="279.46701"
     inkscape:document-units="px"
     inkscape:current-layer="g2922"
     showgrid="false"
     inkscape:window-width="832"
     inkscape:window-height="706"
     inkscape:window-x="0"
     inkscape:window-y="35"
     inkscape:window-maximized="0" />
  <metadata
     id="metadata7">
    <rdf:RDF>
      <cc:Work
         rdf:about="">
        <dc:format>image/svg+xml</dc:format>
        <dc:type
           rdf:resource="http://purl.org/dc/dcmitype/StillImage" />
        <dc:title />
      </cc:Work>
    </rdf:RDF>
  </metadata>
  <g
     inkscape:label="Layer 1"
     inkscape:groupmode="layer"
     id="layer1"
     transform="translate(0,-476.36218)">
    <rect
       style="fill:#123c5d;fill-opacity:1;stroke:#002a54;stroke-width:2.4933269;stroke-miterlimit:4;stroke-opacity:1;stroke-dasharray:none"
       id="rect3069"
       width="1022.5067"
       height="574.50665"
       x="0.24666345"
       y="477.60886" />
    <rect
       style="fill:#ffffff;fill-opacity:1;stroke:none"
       id="rect3092"
       width="319.83978"
       height="576"
       x="0"
       y="476.36218" />
    <g
       id="layer1-9"
       inkscape:label="Layer 1"
       transform="matrix(0.57483076,0,0,0.57483076,21.848935,187.99899)">
      <g
         transform="matrix(2.578468,0,0,2.578468,-658.58618,-1001.6223)"
         id="g3350">
        <path
           d="m 378.98268,726.82522 -82.4925,0 0,-123.73625 82.4925,0 0,123.73625 z"
           style="fill:#123c5d;fill-opacity:1;fill-rule:nonzero;stroke:none"
           id="path2849" />
        <g
           id="g2859"
           transform="matrix(1.25,0,0,-1.25,382.29893,670.91797)">
          <path
             d="m 0,0 c -1.259,1.265 -2.692,2.642 -4.3,4.115 0.485,-10.496 -3.766,-28.763 -31.364,-48.852 0,0 34.298,22.026 35.664,44.737 m 1.744,-1.783 c -1.296,-9.916 -8.533,-26.043 -37.408,-42.954 0,0 35.188,17.349 40.047,40.084 -0.736,0.833 -1.611,1.793 -2.639,2.87 m -8.87,8.414 c -1.698,1.475 -3.559,3.026 -5.586,4.629 2.087,-11.411 1.716,-33.483 -22.952,-55.997 0,0 31.913,25.499 28.538,51.368 m -37.916,25.163 c -3.737,1.903 -7.703,3.782 -11.892,5.616 9.033,-14.199 26.791,-47.437 21.27,-82.147 0,0 14.426,42.258 -9.378,76.531 m 28.405,-17.517 c -2.039,1.519 -4.218,3.072 -6.541,4.65 3.95,-11.812 8.962,-38.212 -12.486,-63.664 0,0 27.971,29.737 19.027,59.014 m -66.849,32.961 c 11.492,-14.317 38.464,-51.147 47.822,-91.975 0,0 -3.249,54.608 -30.215,85.849 -5.516,2.154 -11.383,4.207 -17.607,6.126 m 54.909,-24.78 c -2.955,1.863 -6.109,3.74 -9.468,5.61 6.441,-11.337 17.625,-38.553 2.381,-72.805 0,0 22.189,35.717 7.087,67.195"
             style="fill:#f26437;fill-opacity:1;fill-rule:nonzero;stroke:none"
             id="path2861" />
        </g>
        <g
           id="g2863"
           transform="matrix(1.25,0,0,-1.25,308.88093,752.56834)">
          <path
             d="m 0,0 -3.415,0 -6.407,17.738 3.978,0.566 3.097,-9.611 c 0.599,-1.865 1.092,-3.975 1.092,-3.975 l 0.069,0 c 0,0 0.388,2.11 1.056,4.115 l 2.958,9.045 4.047,0 L 0,0 z"
             style="fill:#123c5d;fill-opacity:1;fill-rule:nonzero;stroke:none"
             id="path2865" />
        </g>
        <g
           id="g2867"
           transform="matrix(1.25,0,0,-1.25,327.52293,733.34472)">
          <path
             d="m 0,0 c -2.462,0 -3.521,-1.862 -3.521,-6.193 0,-5.172 1.303,-6.687 3.626,-6.687 2.289,0 3.556,1.863 3.556,6.334 C 3.661,-1.51 2.252,0 0,0 m 0.036,-15.765 c -4.823,0 -7.848,3.625 -7.848,9.328 0,5.701 3.061,9.362 7.778,9.362 5.067,0 7.953,-3.768 7.953,-9.399 0,-5.734 -3.063,-9.291 -7.883,-9.291"
             style="fill:#123c5d;fill-opacity:1;fill-rule:nonzero;stroke:none"
             id="path2869" />
        </g>
        <g
           id="g2871"
           transform="matrix(1.25,0,0,-1.25,348.18031,753.09572)">
          <path
             d="m 0,0 c -2.184,0 -4.542,0.703 -6.83,1.971 l 1.372,2.781 c 1.584,-0.917 3.766,-1.866 5.773,-1.866 1.69,0 2.887,1.022 2.887,2.498 0,1.374 -0.881,2.076 -2.887,2.5 l -2.146,0.458 c -2.676,0.562 -4.259,2.393 -4.259,4.891 0,3.343 2.675,5.667 6.616,5.667 2.428,0 4.365,-0.74 5.878,-1.55 L 5.137,14.678 c -1.653,0.879 -2.956,1.3 -4.363,1.3 -1.655,0 -2.71,-0.914 -2.71,-2.287 0,-1.091 0.598,-1.653 2.392,-2.112 L 2.674,11.015 C 6.261,10.1 7.212,8.129 7.212,6.053 7.212,2.466 4.292,0 0,0"
             style="fill:#123c5d;fill-opacity:1;fill-rule:nonzero;stroke:none"
             id="path2873" />
        </g>
        <g
           id="g2875"
           transform="matrix(1.25,0,0,-1.25,369.67443,733.34472)">
          <path
             d="m 0,0 c -2.183,0 -3.379,-1.723 -3.379,-4.608 l 6.58,0 C 3.201,-1.723 1.934,0 0,0 m -3.413,-7.458 0,-0.282 c 0,-2.462 0.913,-5.069 4.398,-5.069 1.655,0 3.097,0.601 4.434,1.76 l 1.514,-2.359 c -1.866,-1.582 -4.012,-2.357 -6.407,-2.357 -5.033,0 -8.201,3.625 -8.201,9.328 0,3.132 0.67,5.208 2.217,6.967 1.445,1.654 3.205,2.395 5.458,2.395 1.76,0 3.378,-0.458 4.891,-1.833 1.549,-1.406 2.323,-3.589 2.323,-7.744 l 0,-0.806 -10.627,0 z"
             style="fill:#123c5d;fill-opacity:1;fill-rule:nonzero;stroke:none"
             id="path2877" />
        </g>
        <g
           id="g2879"
           transform="matrix(1.25,0,0,-1.25,341.12456,771.68459)">
          <path
             d="M 0,0 C -1.041,0 -2.164,0.336 -3.254,0.939 L -2.6,2.264 c 0.754,-0.436 1.796,-0.889 2.751,-0.889 0.805,0 1.375,0.486 1.375,1.191 0,0.653 -0.419,0.99 -1.375,1.191 l -1.024,0.219 c -1.274,0.268 -2.028,1.14 -2.028,2.331 0,1.592 1.274,2.7 3.153,2.7 1.157,0 2.079,-0.353 2.8,-0.737 L 2.448,6.994 c -0.789,0.42 -1.406,0.621 -2.079,0.621 -0.788,0 -1.291,-0.437 -1.291,-1.091 0,-0.519 0.284,-0.788 1.14,-1.005 L 1.275,5.25 C 2.985,4.813 3.438,3.874 3.438,2.884 3.438,1.174 2.045,0 0,0"
             style="fill:#f26437;fill-opacity:1;fill-rule:nonzero;stroke:none"
             id="path2881" />
        </g>
        <g
           id="g2883"
           transform="matrix(1.25,0,0,-1.25,351.86493,762.27172)">
          <path
             d="m 0,0 c -1.04,0 -1.611,-0.821 -1.611,-2.196 l 3.136,0 C 1.525,-0.821 0.922,0 0,0 m -1.626,-3.555 0,-0.134 c 0,-1.174 0.436,-2.416 2.095,-2.416 0.789,0 1.476,0.285 2.114,0.838 L 3.303,-6.39 C 2.415,-7.144 1.391,-7.514 0.252,-7.514 c -2.4,0 -3.91,1.727 -3.91,4.446 0,1.491 0.32,2.482 1.058,3.321 0.688,0.788 1.527,1.139 2.6,1.139 0.838,0 1.61,-0.218 2.332,-0.871 0.737,-0.671 1.105,-1.712 1.105,-3.691 l 0,-0.385 -5.063,0 z"
             style="fill:#f26437;fill-opacity:1;fill-rule:nonzero;stroke:none"
             id="path2885" />
        </g>
        <g
           id="g2887"
           transform="matrix(1.25,0,0,-1.25,369.79218,771.39222)">
          <path
             d="m 0,0 0,5.872 c 0,0.988 -0.218,1.274 -0.873,1.274 -0.62,0 -1.209,-0.418 -1.794,-0.973 l 0,-6.173 -1.761,0 0,5.82 c 0,0.991 -0.219,1.309 -0.924,1.309 -0.519,0 -1.122,-0.269 -1.743,-0.838 l 0,-6.291 -1.795,0 0,6.089 c 0,1.057 -0.101,1.695 -0.301,2.147 l 1.676,0.47 c 0.167,-0.269 0.269,-0.622 0.303,-1.09 0.67,0.687 1.459,1.072 2.247,1.072 0.754,0 1.409,-0.251 2.029,-1.24 0.822,0.838 1.628,1.24 2.532,1.24 1.394,0 2.215,-0.72 2.215,-2.48 L 1.811,0 0,0 z"
             style="fill:#f26437;fill-opacity:1;fill-rule:nonzero;stroke:none"
             id="path2889" />
        </g>
        <g
           id="g2891"
           transform="matrix(1.25,0,0,-1.25,375.19993,771.39222)">
          <path
             d="M 0,0 0,8.354 1.861,8.688 1.861,0 0,0 z m 0.922,9.746 c -0.672,0 -1.19,0.553 -1.19,1.223 0,0.689 0.536,1.244 1.222,1.244 0.657,0 1.209,-0.537 1.209,-1.244 0,-0.67 -0.552,-1.223 -1.241,-1.223"
             style="fill:#f26437;fill-opacity:1;fill-rule:nonzero;stroke:none"
             id="path2893" />
        </g>
        <g
           id="g2895"
           transform="matrix(1.25,0,0,-1.25,386.51893,771.39222)">
          <path
             d="m 0,0 0,5.638 c 0,1.156 -0.269,1.475 -0.973,1.475 -0.537,0 -1.308,-0.403 -1.862,-0.956 l 0,-6.157 -1.812,0 0,6.24 c 0,0.889 -0.082,1.409 -0.318,2.013 l 1.676,0.47 c 0.202,-0.386 0.304,-0.755 0.304,-1.208 0.905,0.771 1.693,1.173 2.599,1.173 1.308,0 2.215,-0.787 2.215,-2.347 L 1.829,0 0,0 z"
             style="fill:#f26437;fill-opacity:1;fill-rule:nonzero;stroke:none"
             id="path2897" />
        </g>
        <g
           id="g2899"
           transform="matrix(1.25,0,0,-1.25,396.7868,766.37997)">
          <path
             d="m 0,0 c -1.844,0 -2.399,-0.537 -2.399,-1.609 0,-0.807 0.437,-1.31 1.173,-1.31 0.589,0 1.16,0.351 1.528,0.89 l 0.033,2.012 C 0.335,-0.017 0.134,0 0,0 m 1.912,-4.361 c -0.52,0.201 -0.956,0.604 -1.157,1.14 -0.688,-0.771 -1.426,-1.041 -2.332,-1.041 -1.945,0 -2.817,1.074 -2.817,2.551 0,1.962 1.476,2.951 4.193,2.951 l 0.57,0 0,0.454 c 0,0.973 -0.168,1.493 -1.174,1.493 -1.224,0 -2.533,-0.974 -2.533,-0.974 L -4.16,3.54 c 1.275,0.804 2.332,1.156 3.606,1.156 C 0.771,4.696 1.66,4.209 2.03,3.287 2.181,2.919 2.181,2.465 2.164,1.207 L 2.13,-1.225 C 2.113,-2.366 2.214,-2.735 2.867,-3.188 L 1.912,-4.361 z"
             style="fill:#f26437;fill-opacity:1;fill-rule:nonzero;stroke:none"
             id="path2901" />
        </g>
        <g
           id="g2903"
           transform="matrix(1.25,0,0,-1.25,407.61268,762.79535)">
          <path
             d="m 0,0 c -0.184,0.067 -0.319,0.117 -0.52,0.117 -0.771,0 -1.425,-0.57 -1.593,-1.257 l 0,-5.737 -1.845,0 0,5.988 c 0,1.074 -0.117,1.761 -0.302,2.281 l 1.694,0.436 c 0.201,-0.385 0.318,-0.872 0.318,-1.342 0.671,0.922 1.342,1.359 2.165,1.359 0.268,0 0.437,-0.034 0.653,-0.134 L 0,0 z"
             style="fill:#f26437;fill-opacity:1;fill-rule:nonzero;stroke:none"
             id="path2905" />
        </g>
        <g
           id="g2907"
           transform="matrix(1.25,0,0,-1.25,415.44893,771.6211)">
          <path
             d="m 0,0 c -0.705,-2.047 -1.309,-3.07 -3.305,-3.44 l -0.604,1.191 c 1.158,0.32 1.812,0.807 2.299,2.432 l -0.587,0 c -0.235,0.956 -0.554,1.878 -0.806,2.633 l -1.928,5.721 1.878,0.318 1.56,-5.165 c 0.135,-0.504 0.436,-1.779 0.47,-1.913 0.017,0.067 0.318,1.274 0.638,2.298 l 1.407,4.596 1.98,0 L 0,0 z"
             style="fill:#f26437;fill-opacity:1;fill-rule:nonzero;stroke:none"
             id="path2909" />
        </g>
      </g>
    </g>
    <text
       xml:space="preserve"
       style="font-size:39.99999619px;font-style:normal;font-weight:normal;text-align:end;text-anchor:end;fill:#123c5d;fill-opacity:1;stroke:none;font-family:Bitstream Vera Sans"
       x="276.69907"
       y="870.63898"
       id="text3887"><tspan
         sodipodi:role="line"
         id="tspan3889"
         x="276.69907"
         y="870.63898"
         style="font-style:normal;font-variant:normal;font-weight:bold;font-stretch:normal;text-align:end;text-anchor:end;fill:#123c5d;fill-opacity:1;font-family:Corbel;-inkscape-font-specification:Corbel Bold" /><tspan
         sodipodi:role="line"
         x="276.69907"
         y="920.63898"
         style="font-style:normal;font-variant:normal;font-weight:bold;font-stretch:normal;text-align:end;text-anchor:end;fill:#123c5d;fill-opacity:1;font-family:Corbel;-inkscape-font-specification:Corbel Bold"
         id="tspan2870">Continue</tspan><tspan
         sodipodi:role="line"
         x="276.69907"
         y="970.63898"
         style="font-style:normal;font-variant:normal;font-weight:bold;font-stretch:normal;text-align:end;text-anchor:end;fill:#123c5d;fill-opacity:1;font-family:Corbel;-inkscape-font-specification:Corbel Bold"
         id="tspan2865">Main Menu</tspan><tspan
         sodipodi:role="line"
         x="276.69907"
         y="1020.639"
         style="font-style:normal;font-variant:normal;font-weight:bold;font-stretch:normal;text-align:end;text-anchor:end;fill:#123c5d;fill-opacity:1;font-family:Corbel;-inkscape-font-specification:Corbel Bold"
         id="tspan2874">Back 2 min</tspan></text>
    <g
       id="g2922"
       transform="translate(0,-14.042127)">
      <text
         sodipodi:linespacing="80.000001%"
         id="text2894"
         y="628.6485"
         x="337.91287"
         style="font-size:44.37965775px;font-style:normal;font-weight:normal;text-align:start;line-height:80.00000119%;text-anchor:start;fill:#f26437;fill-opacity:1;stroke:none;font-family:Bitstream Vera Sans"
         xml:space="preserve"><tspan
           id="tspan2896"
           style="font-size:44.37965775px;font-style:normal;font-variant:normal;font-weight:bold;font-stretch:normal;text-align:start;line-height:80.00000119%;writing-mode:lr-tb;text-anchor:start;fill:#f26437;fill-opacity:1;font-family:Corbel;-inkscape-font-specification:Corbel Bold"
           y="628.6485"
           x="337.91287"
           sodipodi:role="line">{{title}} <tspan
   id="tspan2920"
   style="font-size:32px;fill:#ffffff">{{time}} mins</tspan></tspan></text>
      <flowRoot
         transform="translate(-5.9891234,411.53391)"
         style="font-size:40px;font-style:normal;font-weight:normal;text-align:end;text-anchor:end;fill:#ffffff;fill-opacity:1;stroke:none;font-family:Bitstream Vera Sans"
         id="flowRoot2904"
         xml:space="preserve"><flowRegion
           id="flowRegion2906"><rect
             style="fill:#ffffff"
             y="239.75351"
             x="343.94681"
             height="355.92505"
             width="654.52563"
             id="rect2908" /></flowRegion><flowPara
           id="flowPara2914"
           style="font-size:28px;font-style:normal;font-variant:normal;font-weight:bold;font-stretch:normal;text-align:start;text-anchor:start;fill:#ffffff;font-family:Corbel;-inkscape-font-specification:Corbel Bold">{{text}}</flowPara></flowRoot>    </g>
  </g>
</svg>
